<?xml version="1.0" encoding="UTF-8" standalone="no"?>
<!DOCTYPE svg PUBLIC "-//W3C//DTD SVG 1.1//EN" "http://www.w3.org/Graphics/SVG/1.1/DTD/svg11.dtd">
<svg width="100%" height="100%" viewBox="0 0 1720 650" version="1.1" xmlns="http://www.w3.org/2000/svg" xmlns:xlink="http://www.w3.org/1999/xlink" xml:space="preserve" xmlns:serif="http://www.serif.com/" style="fill-rule:evenodd;clip-rule:evenodd;stroke-linejoin:round;stroke-miterlimit:2;">
    <g transform="matrix(1,0,0,1,-8560.31,-3331.89)">
        <g id="hero-left" transform="matrix(1.51837,0,0,1.33709,-2879.32,-193.854)">
            <rect x="7534.14" y="2636.87" width="1132.79" height="486.129" style="fill:none;"/>
            <g id="export" transform="matrix(0.523256,0,0,1,3587.52,2.27374e-12)">
                <g id="ridefree" transform="matrix(2.04876,0,0,1.21737,7149.28,-1230.98)">
                    <g transform="matrix(1,0,0,1,-128.41,0)">
                        <path d="M422.272,3532.51L455.509,3532.51L478.058,3576L408.509,3576C406.654,3571.02 404.775,3566.04 402.871,3561.07C400.968,3556.09 399.064,3551.11 397.161,3546.13C395.258,3541.15 393.33,3536.17 391.377,3531.2L408.362,3531.2C410.314,3531.2 412.047,3530.9 413.56,3530.32C415.073,3529.73 416.318,3528.95 417.294,3527.97C418.27,3527 419.002,3525.9 419.49,3524.68C419.978,3523.46 420.222,3522.22 420.222,3520.95C420.222,3519.19 419.783,3517.53 418.904,3515.97C418.026,3514.41 416.708,3513.14 414.951,3512.16C413.194,3511.18 410.998,3510.7 408.362,3510.7L391.377,3510.7L391.377,3576L330.613,3576L330.613,3466.18L436.475,3466.18C445.065,3466.18 452.191,3467.72 457.852,3470.8C463.514,3473.87 467.76,3477.83 470.591,3482.66C473.422,3487.49 474.837,3492.59 474.837,3497.96C474.837,3503.52 473.3,3508.91 470.225,3514.14C467.15,3519.36 462.513,3523.63 456.315,3526.95C450.116,3530.27 442.38,3531.93 433.107,3531.93L422.272,3531.93L422.272,3532.51ZM419.712,3529.37L433.107,3529.37C441.894,3529.37 449.233,3527.84 455.106,3524.69C460.852,3521.62 465.169,3517.68 468.019,3512.84C470.848,3508.03 472.277,3503.08 472.277,3497.96C472.277,3493.04 470.974,3488.38 468.382,3483.95C465.775,3479.5 461.845,3475.88 456.631,3473.05C451.295,3470.15 444.57,3468.74 436.475,3468.74L333.173,3468.74L333.173,3573.44C333.173,3573.44 388.818,3573.44 388.818,3573.44L388.818,3508.14L408.362,3508.14C411.499,3508.14 414.103,3508.76 416.194,3509.92C418.397,3511.15 420.034,3512.75 421.135,3514.71C422.235,3516.67 422.782,3518.75 422.782,3520.95C422.782,3522.54 422.479,3524.1 421.867,3525.63C421.252,3527.17 420.334,3528.55 419.104,3529.78C417.894,3530.99 416.36,3531.98 414.484,3532.7C412.701,3533.39 410.663,3533.76 408.362,3533.76C408.362,3533.76 395.127,3533.76 395.127,3533.76C396.616,3537.58 398.091,3541.4 399.552,3545.22C401.455,3550.19 403.359,3555.17 405.262,3560.15C406.956,3564.58 408.631,3569.01 410.286,3573.44C410.286,3573.44 473.847,3573.44 473.847,3573.44C473.847,3573.44 453.953,3535.07 453.953,3535.07L419.712,3535.07L419.712,3529.37Z" style="fill:white;"/>
                    </g>
                    <g transform="matrix(1,0,0,1,-538.387,0)">
                        <path d="M891.402,3576L891.402,3466.18L952.167,3466.18L952.167,3576L891.402,3576ZM893.962,3573.44L893.962,3468.74C893.962,3468.74 949.607,3468.74 949.607,3468.74L949.607,3573.44L893.962,3573.44Z" style="fill:white;"/>
                    </g>
                    <g transform="matrix(1,0,0,1,-538.387,0)">
                        <path d="M1045.29,3466.18C1054.47,3466.18 1062.59,3467.18 1069.67,3469.19C1076.75,3471.19 1082.82,3473.95 1087.9,3477.46C1092.97,3480.97 1097.12,3485.05 1100.34,3489.68C1103.57,3494.32 1105.96,3499.28 1107.52,3504.55C1109.08,3509.82 1109.86,3515.19 1109.86,3520.65C1109.86,3527.58 1108.62,3534.34 1106.13,3540.93C1103.64,3547.52 1099.78,3553.45 1094.56,3558.72C1089.34,3563.99 1082.65,3568.19 1074.5,3571.32C1066.35,3574.44 1056.61,3576 1045.29,3576L958.023,3576L958.023,3466.18L1045.29,3466.18ZM1045.29,3468.74C1054.2,3468.74 1062.1,3469.71 1068.97,3471.65C1075.75,3473.57 1081.58,3476.2 1086.44,3479.56C1091.25,3482.89 1095.19,3486.75 1098.24,3491.15C1101.3,3495.55 1103.58,3500.26 1105.06,3505.27C1106.56,3510.31 1107.3,3515.43 1107.3,3520.65C1107.3,3527.28 1106.11,3533.73 1103.73,3540.03C1101.37,3546.29 1097.7,3551.91 1092.74,3556.92C1087.76,3561.95 1081.37,3565.94 1073.59,3568.92C1065.69,3571.95 1056.26,3573.44 1045.29,3573.44C1045.29,3573.44 960.583,3573.44 960.583,3573.44L960.583,3468.74L1045.29,3468.74ZM1033.58,3508.35L1016.01,3508.35L1016.01,3533.83L1033.87,3533.83C1036.02,3533.83 1037.94,3533.49 1039.65,3532.81C1041.36,3532.12 1042.8,3531.2 1043.97,3530.02C1045.14,3528.85 1046.05,3527.49 1046.68,3525.92C1047.32,3524.36 1047.63,3522.75 1047.63,3521.09C1047.63,3518.75 1047.07,3516.6 1045.95,3514.65C1044.83,3512.7 1043.24,3511.16 1041.19,3510.04C1039.14,3508.91 1036.6,3508.35 1033.58,3508.35ZM1013.45,3536.39L1033.87,3536.39C1036.37,3536.39 1038.61,3535.98 1040.6,3535.18C1042.65,3534.36 1044.38,3533.24 1045.78,3531.83C1047.2,3530.42 1048.29,3528.77 1049.05,3526.89C1049.81,3525.01 1050.19,3523.08 1050.19,3521.09C1050.19,3518.28 1049.51,3515.71 1048.17,3513.37C1046.81,3511.01 1044.9,3509.15 1042.42,3507.79C1040.04,3506.49 1037.1,3505.79 1033.58,3505.79C1033.58,3505.79 1013.45,3505.8 1013.45,3505.8C1013.45,3505.8 1013.45,3536.39 1013.45,3536.39Z" style="fill:white;"/>
                    </g>
                    <g transform="matrix(1,0,0,1,94.441,0)">
                        <path d="M540.726,3532.07L540.726,3540.57L605.444,3540.57L605.444,3576L481.426,3576L481.426,3466.18L604.565,3466.18L604.565,3503.08L540.726,3503.08L540.726,3511.43L602.369,3511.43L602.369,3532.07L540.726,3532.07ZM538.166,3500.52L538.166,3513.99L599.809,3513.99C599.809,3513.99 599.809,3529.51 599.809,3529.51C599.809,3529.51 538.166,3529.51 538.166,3529.51C538.166,3529.51 538.166,3528.66 538.166,3529.52L538.166,3543.13L540.872,3543.13C540.872,3543.13 602.884,3543.13 602.884,3543.13C602.884,3543.13 602.884,3573.44 602.884,3573.44C602.884,3573.44 483.986,3573.44 483.986,3573.44L483.986,3468.74C499.979,3468.74 586.012,3468.74 602.005,3468.74L602.005,3500.52L538.166,3500.52Z" style="fill:white;"/>
                    </g>
                    <g transform="matrix(1,0,0,1,503.246,0)">
                        <path d="M325.342,3509.23L263.113,3509.23L263.113,3518.02L323.146,3518.02L323.146,3552.87L263.113,3552.87L263.113,3576L202.203,3576L202.203,3466.18L325.342,3466.18L325.342,3509.23ZM260.554,3550.31L260.554,3573.44C260.554,3573.44 204.762,3573.44 204.762,3573.44L204.762,3468.74C220.756,3468.74 306.789,3468.74 322.782,3468.74L322.782,3506.67L260.554,3506.67L260.554,3520.58L320.586,3520.58C320.586,3520.58 320.586,3550.31 320.586,3550.31C320.586,3550.31 260.554,3550.31 260.554,3550.31Z" style="fill:white;"/>
                    </g>
                    <g transform="matrix(1,0,0,1,503.246,0)">
                        <path d="M422.272,3532.51L455.509,3532.51L478.058,3576L408.509,3576C406.654,3571.02 404.775,3566.04 402.871,3561.07C400.968,3556.09 399.064,3551.11 397.161,3546.13C395.258,3541.15 393.33,3536.17 391.377,3531.2L408.362,3531.2C410.314,3531.2 412.047,3530.9 413.56,3530.32C415.073,3529.73 416.318,3528.95 417.294,3527.97C418.27,3527 419.002,3525.9 419.49,3524.68C419.978,3523.46 420.222,3522.22 420.222,3520.95C420.222,3519.19 419.783,3517.53 418.904,3515.97C418.026,3514.41 416.708,3513.14 414.951,3512.16C413.194,3511.18 410.998,3510.7 408.362,3510.7L391.377,3510.7L391.377,3576L330.613,3576L330.613,3466.18L436.475,3466.18C445.065,3466.18 452.191,3467.72 457.852,3470.8C463.514,3473.87 467.76,3477.83 470.591,3482.66C473.422,3487.49 474.837,3492.59 474.837,3497.96C474.837,3503.52 473.3,3508.91 470.225,3514.14C467.15,3519.36 462.513,3523.63 456.315,3526.95C450.116,3530.27 442.38,3531.93 433.107,3531.93L422.272,3531.93L422.272,3532.51ZM419.712,3529.37L433.107,3529.37C441.894,3529.37 449.233,3527.84 455.106,3524.69C460.852,3521.62 465.169,3517.68 468.019,3512.84C470.848,3508.03 472.277,3503.08 472.277,3497.96C472.277,3493.04 470.974,3488.38 468.382,3483.95C465.775,3479.5 461.845,3475.88 456.631,3473.05C451.295,3470.15 444.57,3468.74 436.475,3468.74L333.173,3468.74L333.173,3573.44C333.173,3573.44 388.818,3573.44 388.818,3573.44L388.818,3508.14L408.362,3508.14C411.499,3508.14 414.103,3508.76 416.194,3509.92C418.397,3511.15 420.034,3512.75 421.135,3514.71C422.235,3516.67 422.782,3518.75 422.782,3520.95C422.782,3522.54 422.479,3524.1 421.867,3525.63C421.252,3527.17 420.334,3528.55 419.104,3529.78C417.894,3530.99 416.36,3531.98 414.484,3532.7C412.701,3533.39 410.663,3533.76 408.362,3533.76C408.362,3533.76 395.127,3533.76 395.127,3533.76C396.616,3537.58 398.091,3541.4 399.552,3545.22C401.455,3550.19 403.359,3555.17 405.262,3560.15C406.956,3564.58 408.631,3569.01 410.286,3573.44C410.286,3573.44 473.847,3573.44 473.847,3573.44C473.847,3573.44 453.953,3535.07 453.953,3535.07L419.712,3535.07L419.712,3529.37Z" style="fill:white;"/>
                    </g>
                    <g transform="matrix(1,0,0,1,503.246,0)">
                        <path d="M540.726,3532.07L540.726,3540.57L605.444,3540.57L605.444,3576L481.426,3576L481.426,3466.18L604.565,3466.18L604.565,3503.08L540.726,3503.08L540.726,3511.43L602.369,3511.43L602.369,3532.07L540.726,3532.07ZM538.166,3500.52L538.166,3513.99L599.809,3513.99C599.809,3513.99 599.809,3529.51 599.809,3529.51C599.809,3529.51 538.166,3529.51 538.166,3529.51C538.166,3529.51 538.166,3528.66 538.166,3529.52L538.166,3543.13L540.872,3543.13C540.872,3543.13 602.884,3543.13 602.884,3543.13C602.884,3543.13 602.884,3573.44 602.884,3573.44C602.884,3573.44 483.986,3573.44 483.986,3573.44L483.986,3468.74C499.979,3468.74 586.012,3468.74 602.005,3468.74L602.005,3500.52L538.166,3500.52Z" style="fill:white;"/>
                    </g>
                    <g transform="matrix(1,0,0,1,632.828,0)">
                        <path d="M540.726,3532.07L540.726,3540.57L605.444,3540.57L605.444,3576L481.426,3576L481.426,3466.18L604.565,3466.18L604.565,3503.08L540.726,3503.08L540.726,3511.43L602.369,3511.43L602.369,3532.07L540.726,3532.07ZM538.166,3500.52L538.166,3513.99L599.809,3513.99C599.809,3513.99 599.809,3529.51 599.809,3529.51C599.809,3529.51 538.166,3529.51 538.166,3529.51C538.166,3529.51 538.166,3528.66 538.166,3529.52L538.166,3543.13L540.872,3543.13C540.872,3543.13 602.884,3543.13 602.884,3543.13C602.884,3543.13 602.884,3573.44 602.884,3573.44C602.884,3573.44 483.986,3573.44 483.986,3573.44L483.986,3468.74C499.979,3468.74 586.012,3468.74 602.005,3468.74L602.005,3500.52L538.166,3500.52Z" style="fill:white;"/>
                    </g>
                </g>
                <g id="freeride" transform="matrix(2.19442,0,0,1.21687,7120.26,-1535.53)">
                    <g transform="matrix(1,0,0,1,-469.843,0)">
                        <path d="M726.329,3511.1L784.427,3511.1L784.427,3476.03C784.427,3476.03 674.241,3476.03 674.241,3476.03L674.241,3573.44C674.241,3573.44 726.329,3573.44 726.329,3573.44L726.329,3551.84C726.329,3551.84 782.377,3551.84 782.377,3551.84C782.377,3551.84 782.377,3524.43 782.377,3524.43L726.329,3524.43L726.329,3511.1ZM728.719,3521.87L784.767,3521.87L784.767,3554.4L728.719,3554.4L728.719,3576L671.851,3576L671.851,3473.47L786.817,3473.47L786.817,3513.66L728.719,3513.66L728.719,3521.87Z" style="fill:white;"/>
                    </g>
                    <g transform="matrix(1,0,0,1,119.887,0)">
                        <path d="M287.583,3535.4L318.615,3535.4L339.667,3576L274.733,3576C273.002,3571.35 271.248,3566.7 269.47,3562.06C267.693,3557.41 265.916,3552.76 264.139,3548.11C262.362,3543.47 260.562,3538.82 258.739,3534.17L274.597,3534.17C276.419,3534.17 278.037,3533.9 279.45,3533.35C280.862,3532.8 282.024,3532.07 282.935,3531.16C283.847,3530.25 284.53,3529.22 284.986,3528.09C285.442,3526.95 285.67,3525.78 285.67,3524.6C285.67,3522.96 285.259,3521.41 284.439,3519.95C283.619,3518.49 282.389,3517.31 280.748,3516.4C279.108,3515.49 277.057,3515.03 274.597,3515.03L258.739,3515.03L258.739,3576L202.008,3576L202.008,3473.47L300.843,3473.47C308.863,3473.47 315.516,3474.91 320.802,3477.78C326.088,3480.65 330.052,3484.34 332.695,3488.85C335.338,3493.36 336.659,3498.13 336.659,3503.14C336.659,3508.33 335.224,3513.37 332.353,3518.24C329.482,3523.12 325.153,3527.11 319.366,3530.2C313.579,3533.3 306.357,3534.85 297.699,3534.85L287.583,3534.85L287.583,3535.4ZM285.37,3532.29L297.699,3532.29C305.927,3532.29 312.798,3530.86 318.298,3527.91C323.651,3525.05 327.676,3521.39 330.332,3516.88C332.944,3512.44 334.269,3507.87 334.269,3503.14C334.269,3498.6 333.062,3494.3 330.671,3490.21C328.242,3486.07 324.579,3482.7 319.721,3480.06C314.724,3477.35 308.426,3476.03 300.843,3476.03L204.398,3476.03L204.398,3573.44C204.398,3573.44 256.349,3573.44 256.349,3573.44L256.349,3512.47C256.349,3512.47 274.597,3512.47 274.597,3512.47C277.501,3512.47 279.912,3513.05 281.848,3514.12C283.918,3515.27 285.451,3516.79 286.486,3518.63C287.539,3520.5 288.059,3522.49 288.059,3524.6C288.059,3526.13 287.77,3527.63 287.183,3529.1C286.6,3530.55 285.732,3531.87 284.566,3533.03C283.438,3534.16 282.01,3535.08 280.262,3535.76C278.612,3536.4 276.725,3536.73 274.597,3536.73C274.597,3536.73 262.331,3536.73 262.331,3536.73C263.684,3540.2 265.024,3543.67 266.351,3547.14C268.128,3551.79 269.905,3556.44 271.682,3561.09C273.256,3565.2 274.813,3569.32 276.352,3573.44C276.352,3573.44 335.605,3573.44 335.605,3573.44C335.605,3573.44 317.208,3537.96 317.208,3537.96L285.37,3537.96L285.37,3532.29Z" style="fill:white;"/>
                    </g>
                    <g transform="matrix(1,0,0,1,-88.1725,0)">
                        <path d="M606.234,3534.99L606.234,3542.92L666.657,3542.92L666.657,3576L550.87,3576L550.87,3473.47L665.836,3473.47L665.836,3507.92L606.234,3507.92L606.234,3515.72L663.786,3515.72L663.786,3534.99L606.234,3534.99ZM603.845,3505.36L603.845,3518.28L661.396,3518.28C661.396,3518.28 661.396,3532.43 661.396,3532.43C661.396,3532.43 603.845,3532.43 603.845,3532.43L603.845,3545.48L664.267,3545.48C664.267,3545.48 664.267,3573.44 664.267,3573.44C664.267,3573.44 553.26,3573.44 553.26,3573.44L553.26,3476.03C553.26,3476.03 647.17,3476.03 663.446,3476.03L663.446,3505.36L603.845,3505.36Z" style="fill:white;"/>
                    </g>
                    <g transform="matrix(1,0,0,1,32.8084,0)">
                        <path d="M606.234,3534.99L606.234,3542.92L666.657,3542.92L666.657,3576L550.87,3576L550.87,3473.47L665.836,3473.47L665.836,3507.92L606.234,3507.92L606.234,3515.72L663.786,3515.72L663.786,3534.99L606.234,3534.99ZM603.845,3505.36L603.845,3518.28L661.396,3518.28C661.396,3518.28 661.396,3532.43 661.396,3532.43C661.396,3532.43 603.845,3532.43 603.845,3532.43L603.845,3545.48L664.267,3545.48C664.267,3545.48 664.267,3573.44 664.267,3573.44C664.267,3573.44 553.26,3573.44 553.26,3573.44L553.26,3476.03C553.26,3476.03 647.17,3476.03 663.446,3476.03L663.446,3505.36L603.845,3505.36Z" style="fill:white;"/>
                    </g>
                    <g transform="matrix(1,0,0,1,502.651,0)">
                        <path d="M287.583,3535.4L318.615,3535.4L339.667,3576L274.733,3576C273.002,3571.35 271.248,3566.7 269.47,3562.06C267.693,3557.41 265.916,3552.76 264.139,3548.11C262.362,3543.47 260.562,3538.82 258.739,3534.17L274.597,3534.17C276.419,3534.17 278.037,3533.9 279.45,3533.35C280.862,3532.8 282.024,3532.07 282.935,3531.16C283.847,3530.25 284.53,3529.22 284.986,3528.09C285.442,3526.95 285.67,3525.78 285.67,3524.6C285.67,3522.96 285.259,3521.41 284.439,3519.95C283.619,3518.49 282.389,3517.31 280.748,3516.4C279.108,3515.49 277.057,3515.03 274.597,3515.03L258.739,3515.03L258.739,3576L202.008,3576L202.008,3473.47L300.843,3473.47C308.863,3473.47 315.516,3474.91 320.802,3477.78C326.088,3480.65 330.052,3484.34 332.695,3488.85C335.338,3493.36 336.659,3498.13 336.659,3503.14C336.659,3508.33 335.224,3513.37 332.353,3518.24C329.482,3523.12 325.153,3527.11 319.366,3530.2C313.579,3533.3 306.357,3534.85 297.699,3534.85L287.583,3534.85L287.583,3535.4ZM285.37,3532.29L297.699,3532.29C305.927,3532.29 312.798,3530.86 318.298,3527.91C323.651,3525.05 327.676,3521.39 330.332,3516.88C332.944,3512.44 334.269,3507.87 334.269,3503.14C334.269,3498.6 333.062,3494.3 330.671,3490.21C328.242,3486.07 324.579,3482.7 319.721,3480.06C314.724,3477.35 308.426,3476.03 300.843,3476.03L204.398,3476.03L204.398,3573.44C204.398,3573.44 256.349,3573.44 256.349,3573.44L256.349,3512.47C256.349,3512.47 274.597,3512.47 274.597,3512.47C277.501,3512.47 279.912,3513.05 281.848,3514.12C283.918,3515.27 285.451,3516.79 286.486,3518.63C287.539,3520.5 288.059,3522.49 288.059,3524.6C288.059,3526.13 287.77,3527.63 287.183,3529.1C286.6,3530.55 285.732,3531.87 284.566,3533.03C283.438,3534.16 282.01,3535.08 280.262,3535.76C278.612,3536.4 276.725,3536.73 274.597,3536.73C274.597,3536.73 262.331,3536.73 262.331,3536.73C263.684,3540.2 265.024,3543.67 266.351,3547.14C268.128,3551.79 269.905,3556.44 271.682,3561.09C273.256,3565.2 274.813,3569.32 276.352,3573.44C276.352,3573.44 335.605,3573.44 335.605,3573.44C335.605,3573.44 317.208,3537.96 317.208,3537.96L285.37,3537.96L285.37,3532.29Z" style="fill:white;"/>
                    </g>
                    <g transform="matrix(1,0,0,1,502.651,0)">
                        <path d="M342.811,3576L342.811,3473.47L399.542,3473.47L399.542,3576L342.811,3576ZM345.201,3573.44L345.201,3476.03C345.201,3476.03 397.152,3476.03 397.152,3476.03L397.152,3573.44L345.201,3573.44Z" style="fill:white;"/>
                    </g>
                    <g transform="matrix(1,0,0,1,502.651,0)">
                        <path d="M486.484,3473.47C495.051,3473.47 502.638,3474.41 509.245,3476.28C515.852,3478.14 521.525,3480.72 526.264,3484C531.003,3487.28 534.876,3491.09 537.884,3495.41C540.891,3499.74 543.124,3504.37 544.582,3509.29C546.04,3514.21 546.769,3519.22 546.769,3524.33C546.769,3530.8 545.607,3537.11 543.283,3543.26C540.96,3549.41 537.36,3554.95 532.484,3559.87C527.608,3564.79 521.366,3568.71 513.756,3571.63C506.146,3574.54 497.056,3576 486.484,3576L405.01,3576L405.01,3473.47L486.484,3473.47ZM486.484,3476.03C494.821,3476.03 502.205,3476.93 508.635,3478.75C514.974,3480.55 520.421,3483 524.967,3486.15C529.451,3489.26 533.121,3492.85 535.967,3496.94C538.811,3501.04 540.925,3505.41 542.304,3510.07C543.687,3514.73 544.379,3519.49 544.379,3524.33C544.379,3530.47 543.274,3536.46 541.068,3542.3C538.87,3548.12 535.457,3553.35 530.845,3558.01C526.189,3562.7 520.218,3566.43 512.951,3569.21C505.567,3572.04 496.743,3573.44 486.484,3573.44C486.484,3573.44 407.4,3573.44 407.4,3573.44L407.4,3476.03C407.4,3476.03 486.484,3476.03 486.484,3476.03ZM475.548,3512.84L459.144,3512.84L459.144,3536.63L475.821,3536.63C477.826,3536.63 479.626,3536.31 481.221,3535.67C482.816,3535.03 484.16,3534.17 485.254,3533.08C486.347,3531.98 487.19,3530.71 487.783,3529.25C488.375,3527.79 488.671,3526.29 488.671,3524.74C488.671,3522.55 488.147,3520.55 487.099,3518.72C486.051,3516.9 484.57,3515.46 482.656,3514.42C480.743,3513.37 478.373,3512.84 475.548,3512.84ZM456.754,3510.28L456.754,3539.19L475.821,3539.19C478.137,3539.19 480.214,3538.81 482.057,3538.07C483.968,3537.31 485.573,3536.26 486.884,3534.95C488.221,3533.61 489.25,3532.05 489.974,3530.27C490.7,3528.48 491.061,3526.64 491.061,3524.74C491.061,3522.06 490.416,3519.61 489.134,3517.38C487.86,3515.16 486.07,3513.41 483.744,3512.14C481.535,3510.93 478.808,3510.28 475.548,3510.28C475.548,3510.28 456.754,3510.28 456.754,3510.28Z" style="fill:white;"/>
                    </g>
                    <g transform="matrix(1,0,0,1,502.651,0)">
                        <path d="M606.234,3534.99L606.234,3542.92L666.657,3542.92L666.657,3576L550.87,3576L550.87,3473.47L665.836,3473.47L665.836,3507.92L606.234,3507.92L606.234,3515.72L663.786,3515.72L663.786,3534.99L606.234,3534.99ZM603.845,3505.36L603.845,3518.28L661.396,3518.28C661.396,3518.28 661.396,3532.43 661.396,3532.43C661.396,3532.43 603.845,3532.43 603.845,3532.43L603.845,3545.48L664.267,3545.48C664.267,3545.48 664.267,3573.44 664.267,3573.44C664.267,3573.44 553.26,3573.44 553.26,3573.44L553.26,3476.03C553.26,3476.03 647.17,3476.03 663.446,3476.03L663.446,3505.36L603.845,3505.36Z" style="fill:white;"/>
                    </g>
                </g>
            </g>
        </g>
    </g>
</svg>
